<?xml version="1.0" encoding="utf-8"?>
<!-- Generator: Adobe Illustrator 23.0.6, SVG Export Plug-In . SVG Version: 6.00 Build 0)  -->
<svg version="1.1" id="Layer_1" xmlns="http://www.w3.org/2000/svg" xmlns:xlink="http://www.w3.org/1999/xlink" x="0px" y="0px"
	 viewBox="0 0 1920 494.9" style="enable-background:new 0 0 1920 494.9;" xml:space="preserve">
<style type="text/css">
	.st0{fill:#FFFFFF;}
</style>
<title>hwave</title>
<path class="st0" d="M0,475.3c0,0,70.8,10.8,120.9-84.6c0,0,84.6-244.8,191.7-44.2s184.8-1,210.4-41.3s101.3-227.1,233-53.1
	c106,140,152.1,133.6,204,100.8c8.8-5.6,43-37,43-37s10-12,34-38c60.3-65.3,208.6-347.3,380.6-170.3c0,0,32.4,27.5,66.9,110.1
	s106.2,127.8,176,38.3s112-394.2,259.5-182.9v421.7H0V475.3z"/>
</svg>
