<svg id="Layer_1" data-name="Layer 1" xmlns="http://www.w3.org/2000/svg" viewBox="0 0 1328 664"><g style="opacity:0.2"><path d="M1329,700c0-366.72-297.28-664-664-664S1,333.28,1,700Z" transform="translate(-1 -36)" style="fill:#a179eb"/></g><g style="opacity:0.2"><path d="M1212,700c0-302.1-244.9-547-547-547S118,397.9,118,700Z" transform="translate(-1 -36)" style="fill:#a179eb"/></g><g style="opacity:0.2"><path d="M1080,700c0-229.2-185.8-415-415-415S250,470.8,250,700Z" transform="translate(-1 -36)" style="fill:#a179eb"/></g><g style="opacity:0.2"><path d="M946.41,700c0-155.42-126-281.41-281.41-281.41S383.59,544.58,383.59,700Z" transform="translate(-1 -36)" style="fill:#a179eb"/></g><g style="opacity:0.2"><path d="M797.59,700a132.59,132.59,0,0,0-265.18,0Z" transform="translate(-1 -36)" style="fill:#a179eb"/></g></svg>