<?xml version="1.0" encoding="utf-8"?>
<!-- Generator: Adobe Illustrator 26.0.2, SVG Export Plug-In . SVG Version: 6.00 Build 0)  -->
<svg version="1.1" id="Layer_1" xmlns="http://www.w3.org/2000/svg" xmlns:xlink="http://www.w3.org/1999/xlink" x="0px" y="0px"
	 viewBox="0 0 250 250" style="enable-background:new 0 0 250 250;" xml:space="preserve">
<style type="text/css">
	.st0{fill:#FF0988;}
</style>
<path class="st0" d="M250,79.3V54.7c0-2-2.2-3.3-3.9-2.3l-7.5,4.3C214.4,21.4,174.3,0,130.9,0C58.7,0,0,58.8-0.1,131.2
	c0,1.8,1.5,3.2,3.2,3.2c1.8,0,3.2-1.5,3.2-3.2C6.3,62.4,62.2,6.4,130.9,6.4c41.1,0,79.1,20.2,102.2,53.5l-8.3,4.8
	c-1.7,1-1.7,3.5,0,4.5l21.3,12.3C247.8,82.5,250,81.2,250,79.3z"/>
</svg>
