<?xml version="1.0" encoding="utf-8"?>
<!-- Generator: Adobe Illustrator 26.0.2, SVG Export Plug-In . SVG Version: 6.00 Build 0)  -->
<svg version="1.1" id="Layer_1" xmlns="http://www.w3.org/2000/svg" xmlns:xlink="http://www.w3.org/1999/xlink" x="0px" y="0px"
	 viewBox="0 0 250 250" style="enable-background:new 0 0 250 250;" xml:space="preserve">
<style type="text/css">
	.st0{fill:#0075FF;}
</style>
<path class="st0" d="M246.1,168.5l-21.3,12.3c-1.7,1-1.7,3.5,0,4.5l8.3,4.8c-23.1,33.3-61.1,53.5-102.2,53.5
	c-68.7,0-124.6-56-124.6-124.8c0-1.7-1.4-3.2-3.2-3.2c-1.7,0-3.2,1.4-3.2,3.2C0,191.2,58.7,250,130.9,250
	c43.4,0,83.5-21.4,107.7-56.7l7.5,4.3c1.7,1,3.9-0.3,3.9-2.3v-24.6C250,168.8,247.8,167.5,246.1,168.5z"/>
</svg>
