<?xml version="1.0" encoding="utf-8"?>
<!-- Generator: Adobe Illustrator 26.2.0, SVG Export Plug-In . SVG Version: 6.00 Build 0)  -->
<svg version="1.1" id="Layer_1" xmlns="http://www.w3.org/2000/svg" xmlns:xlink="http://www.w3.org/1999/xlink" x="0px" y="0px"
	 viewBox="0 0 63.5 42.7" style="enable-background:new 0 0 63.5 42.7;" xml:space="preserve">
<style type="text/css">
	.st0{fill-rule:evenodd;clip-rule:evenodd;fill:#2CA9E3;}
</style>
<path id="_" class="st0" d="M28.1,34.5c-5-4.8-7.5-9.5-7.5-14.1c0-4.4,3.2-9.1,9.5-14.1L31,5.7l-1.7-1.7l-0.8,0.7
	C21.5,10.2,18,15.5,18,20.5c0,4.8,2,9.3,5.9,13.4l0.3-0.1l-1.6,0.6c-4.8,1.6-9.3,3.8-13.5,6.6l1.6,1.7C16.1,39.3,22,36.5,28.1,34.5
	L28.1,34.5L28.1,34.5z M18.5,31.5c0.3-0.1,0.8-0.3,1.5-0.6c-2.9-3.4-4.4-7.7-4.3-12.1c0-6.6,2.8-12.2,8.4-16.9l0.8-0.7L24.3,0
	C8.1,5.2,0,14.6,0,28.2C0,32.1,0.9,36,2.5,39.5C7.5,36.2,12.9,33.5,18.5,31.5L18.5,31.5L18.5,31.5z M60.6,34.5
	c-5-4.9-7.5-9.6-7.5-14.1c0-4.4,3.2-9.1,9.5-14.1l0.9-0.7l-1.7-1.7l-0.8,0.7c-7,5.6-10.5,10.9-10.5,15.9c0,4.8,2,9.2,5.9,13.4
	l0.3-0.1l-1.6,0.6c-4.8,1.5-9.4,3.8-13.5,6.6l1.6,1.7C48.6,39.3,54.5,36.6,60.6,34.5L60.6,34.5L60.6,34.5z M51,31.5
	c0.3-0.1,0.8-0.3,1.6-0.6c-2.9-3.4-4.5-7.7-4.4-12.1c0-6.6,2.8-12.2,8.4-16.9l0.8-0.7L56.8,0C40.6,5.2,32.5,14.6,32.5,28.2
	c0.1,3.9,0.9,7.8,2.5,11.3C39.9,36.2,45.3,33.5,51,31.5L51,31.5L51,31.5z"/>
</svg>
