<?xml version="1.0" encoding="utf-8"?>
<!-- Generator: Adobe Illustrator 26.2.0, SVG Export Plug-In . SVG Version: 6.00 Build 0)  -->
<svg version="1.1" id="Layer_1" xmlns="http://www.w3.org/2000/svg" xmlns:xlink="http://www.w3.org/1999/xlink" x="0px" y="0px"
	 viewBox="0 0 11.6 12.5" style="enable-background:new 0 0 11.6 12.5;" xml:space="preserve">
<style type="text/css">
	.st0{fill-rule:evenodd;clip-rule:evenodd;fill:#363636;}
</style>
<path id="Forma_1" class="st0" d="M11.6,8.1c-0.1-0.3-0.2-0.5-0.5-0.6L8.9,6.2L11.1,5c0.2-0.1,0.4-0.4,0.5-0.6
	c0.1-0.3,0-0.6-0.1-0.8L11,2.7c-0.1-0.2-0.4-0.4-0.6-0.5c-0.3-0.1-0.6,0-0.8,0.1L7.4,3.5V1c0-0.6-0.5-1-1-1h-1c-0.6,0-1,0.5-1,1v2.5
	L2.1,2.3C1.8,2.1,1.6,2.1,1.3,2.2C1,2.2,0.8,2.4,0.7,2.7L0.1,3.6C0,3.8,0,4.1,0,4.4C0.1,4.6,0.3,4.9,0.5,5l2.2,1.3L0.5,7.5
	C0.3,7.6,0.1,7.9,0,8.1C0,8.4,0,8.7,0.1,8.9l0.5,0.9c0.1,0.2,0.4,0.4,0.6,0.5c0.3,0.1,0.6,0,0.8-0.1L4.2,9v2.5c0,0.6,0.5,1,1,1h1
	c0.6,0,1-0.5,1-1V9l2.2,1.2c0.2,0.1,0.5,0.2,0.8,0.1c0.3-0.1,0.5-0.2,0.6-0.5l0.5-0.9C11.6,8.7,11.7,8.4,11.6,8.1z"/>
</svg>
