<?xml version="1.0" encoding="utf-8"?>
<!-- Generator: Adobe Illustrator 26.0.2, SVG Export Plug-In . SVG Version: 6.00 Build 0)  -->
<svg version="1.1" id="Layer_1" xmlns="http://www.w3.org/2000/svg" xmlns:xlink="http://www.w3.org/1999/xlink" x="0px" y="0px"
	 viewBox="0 0 50 50" style="enable-background:new 0 0 50 50;" xml:space="preserve">
<style type="text/css">
	.st0{fill:#FFFFFF;}
</style>
<path class="st0" d="M43,14.2l-3.3-3.3c-0.5-0.5-1-0.7-1.7-0.7c-0.7,0-1.2,0.2-1.7,0.7L20.4,27l-7.2-7.2c-0.5-0.5-1-0.7-1.7-0.7
	c-0.7,0-1.2,0.2-1.7,0.7l-3.3,3.3c-0.5,0.5-0.7,1-0.7,1.7s0.2,1.2,0.7,1.7l8.8,8.8l3.3,3.3c0.5,0.5,1,0.7,1.7,0.7
	c0.7,0,1.2-0.2,1.7-0.7l3.3-3.3L43,17.6c0.5-0.5,0.7-1,0.7-1.7C43.7,15.3,43.5,14.7,43,14.2z"/>
</svg>
