<?xml version="1.0" encoding="utf-8"?>
<!-- Generator: Adobe Illustrator 26.0.2, SVG Export Plug-In . SVG Version: 6.00 Build 0)  -->
<svg version="1.1" id="Layer_1" xmlns="http://www.w3.org/2000/svg" xmlns:xlink="http://www.w3.org/1999/xlink" x="0px" y="0px"
	 viewBox="0 0 197 252" style="enable-background:new 0 0 197 252;" xml:space="preserve">
<style type="text/css">
	.st0{fill:#84D4FF;}
</style>
<g>
	<circle class="st0" cx="2.5" cy="3" r="2"/>
</g>
<g>
	<circle class="st0" cx="21.5" cy="3" r="2"/>
</g>
<g>
	<circle class="st0" cx="173" cy="3" r="2"/>
</g>
<g>
	<circle class="st0" cx="154.1" cy="3" r="2"/>
</g>
<g>
	<circle class="st0" cx="135.2" cy="3" r="2"/>
</g>
<g>
	<circle class="st0" cx="116.2" cy="3" r="2"/>
</g>
<g>
	<circle class="st0" cx="97.2" cy="3" r="2"/>
</g>
<g>
	<circle class="st0" cx="78.3" cy="3" r="2"/>
</g>
<g>
	<circle class="st0" cx="59.3" cy="3" r="2"/>
</g>
<g>
	<circle class="st0" cx="40.4" cy="3" r="2"/>
</g>
<g>
	<circle class="st0" cx="192" cy="3" r="2"/>
</g>
<g>
	<circle class="st0" cx="2.5" cy="16.7" r="2"/>
</g>
<g>
	<circle class="st0" cx="21.5" cy="16.7" r="2"/>
</g>
<g>
	<circle class="st0" cx="173" cy="16.7" r="2"/>
</g>
<g>
	<circle class="st0" cx="154.1" cy="16.7" r="2"/>
</g>
<g>
	<circle class="st0" cx="135.2" cy="16.7" r="2"/>
</g>
<g>
	<circle class="st0" cx="116.2" cy="16.7" r="2"/>
</g>
<g>
	<circle class="st0" cx="97.2" cy="16.7" r="2"/>
</g>
<g>
	<circle class="st0" cx="78.3" cy="16.7" r="2"/>
</g>
<g>
	<circle class="st0" cx="59.3" cy="16.7" r="2"/>
</g>
<g>
	<circle class="st0" cx="40.4" cy="16.7" r="2"/>
</g>
<g>
	<circle class="st0" cx="192" cy="16.7" r="2"/>
</g>
<g>
	<circle class="st0" cx="2.5" cy="30.3" r="2"/>
</g>
<g>
	<circle class="st0" cx="21.5" cy="30.3" r="2"/>
</g>
<g>
	<circle class="st0" cx="173" cy="30.3" r="2"/>
</g>
<g>
	<circle class="st0" cx="154.1" cy="30.3" r="2"/>
</g>
<g>
	<circle class="st0" cx="135.2" cy="30.3" r="2"/>
</g>
<g>
	<circle class="st0" cx="116.2" cy="30.3" r="2"/>
</g>
<g>
	<circle class="st0" cx="97.2" cy="30.3" r="2"/>
</g>
<g>
	<circle class="st0" cx="78.3" cy="30.3" r="2"/>
</g>
<g>
	<circle class="st0" cx="59.3" cy="30.3" r="2"/>
</g>
<g>
	<circle class="st0" cx="40.4" cy="30.3" r="2"/>
</g>
<g>
	<circle class="st0" cx="192" cy="30.3" r="2"/>
</g>
<g>
	<circle class="st0" cx="2.5" cy="44" r="2"/>
</g>
<g>
	<circle class="st0" cx="21.5" cy="44" r="2"/>
</g>
<g>
	<circle class="st0" cx="173" cy="44" r="2"/>
</g>
<g>
	<circle class="st0" cx="154.1" cy="44" r="2"/>
</g>
<g>
	<circle class="st0" cx="135.2" cy="44" r="2"/>
</g>
<g>
	<circle class="st0" cx="116.2" cy="44" r="2"/>
</g>
<g>
	<circle class="st0" cx="97.2" cy="44" r="2"/>
</g>
<g>
	<circle class="st0" cx="78.3" cy="44" r="2"/>
</g>
<g>
	<circle class="st0" cx="59.3" cy="44" r="2"/>
</g>
<g>
	<circle class="st0" cx="40.4" cy="44" r="2"/>
</g>
<g>
	<circle class="st0" cx="192" cy="44" r="2"/>
</g>
<g>
	<circle class="st0" cx="2.5" cy="57.6" r="2"/>
</g>
<g>
	<circle class="st0" cx="21.5" cy="57.6" r="2"/>
</g>
<g>
	<circle class="st0" cx="173" cy="57.6" r="2"/>
</g>
<g>
	<circle class="st0" cx="154.1" cy="57.6" r="2"/>
</g>
<g>
	<circle class="st0" cx="135.2" cy="57.6" r="2"/>
</g>
<g>
	<circle class="st0" cx="116.2" cy="57.6" r="2"/>
</g>
<g>
	<circle class="st0" cx="97.2" cy="57.6" r="2"/>
</g>
<g>
	<circle class="st0" cx="78.3" cy="57.6" r="2"/>
</g>
<g>
	<circle class="st0" cx="59.3" cy="57.6" r="2"/>
</g>
<g>
	<circle class="st0" cx="40.4" cy="57.6" r="2"/>
</g>
<g>
	<circle class="st0" cx="192" cy="57.6" r="2"/>
</g>
<g>
	<circle class="st0" cx="2.5" cy="71.3" r="2"/>
</g>
<g>
	<circle class="st0" cx="21.5" cy="71.3" r="2"/>
</g>
<g>
	<circle class="st0" cx="173" cy="71.3" r="2"/>
</g>
<g>
	<circle class="st0" cx="154.1" cy="71.3" r="2"/>
</g>
<g>
	<circle class="st0" cx="135.2" cy="71.3" r="2"/>
</g>
<g>
	<circle class="st0" cx="116.2" cy="71.3" r="2"/>
</g>
<g>
	<circle class="st0" cx="97.2" cy="71.3" r="2"/>
</g>
<g>
	<circle class="st0" cx="78.3" cy="71.3" r="2"/>
</g>
<g>
	<circle class="st0" cx="59.3" cy="71.3" r="2"/>
</g>
<g>
	<circle class="st0" cx="40.4" cy="71.3" r="2"/>
</g>
<g>
	<circle class="st0" cx="192" cy="71.3" r="2"/>
</g>
<g>
	<circle class="st0" cx="2.5" cy="85" r="2"/>
</g>
<g>
	<circle class="st0" cx="21.5" cy="85" r="2"/>
</g>
<g>
	<circle class="st0" cx="173" cy="85" r="2"/>
</g>
<g>
	<circle class="st0" cx="154.1" cy="85" r="2"/>
</g>
<g>
	<circle class="st0" cx="135.2" cy="85" r="2"/>
</g>
<g>
	<circle class="st0" cx="116.2" cy="85" r="2"/>
</g>
<g>
	<circle class="st0" cx="97.2" cy="85" r="2"/>
</g>
<g>
	<circle class="st0" cx="78.3" cy="85" r="2"/>
</g>
<g>
	<circle class="st0" cx="59.3" cy="85" r="2"/>
</g>
<g>
	<circle class="st0" cx="40.4" cy="85" r="2"/>
</g>
<g>
	<circle class="st0" cx="192" cy="85" r="2"/>
</g>
<g>
	<circle class="st0" cx="2.5" cy="98.6" r="2"/>
</g>
<g>
	<circle class="st0" cx="21.5" cy="98.6" r="2"/>
</g>
<g>
	<circle class="st0" cx="173" cy="98.6" r="2"/>
</g>
<g>
	<circle class="st0" cx="154.1" cy="98.6" r="2"/>
</g>
<g>
	<circle class="st0" cx="135.2" cy="98.6" r="2"/>
</g>
<g>
	<circle class="st0" cx="116.2" cy="98.6" r="2"/>
</g>
<g>
	<circle class="st0" cx="97.2" cy="98.6" r="2"/>
</g>
<g>
	<circle class="st0" cx="78.3" cy="98.6" r="2"/>
</g>
<g>
	<circle class="st0" cx="59.3" cy="98.6" r="2"/>
</g>
<g>
	<circle class="st0" cx="40.4" cy="98.6" r="2"/>
</g>
<g>
	<circle class="st0" cx="192" cy="98.6" r="2"/>
</g>
<g>
	<circle class="st0" cx="2.5" cy="112.3" r="2"/>
</g>
<g>
	<circle class="st0" cx="21.5" cy="112.3" r="2"/>
</g>
<g>
	<circle class="st0" cx="173" cy="112.3" r="2"/>
</g>
<g>
	<circle class="st0" cx="154.1" cy="112.3" r="2"/>
</g>
<g>
	<circle class="st0" cx="135.2" cy="112.3" r="2"/>
</g>
<g>
	<circle class="st0" cx="116.2" cy="112.3" r="2"/>
</g>
<g>
	<circle class="st0" cx="97.2" cy="112.3" r="2"/>
</g>
<g>
	<circle class="st0" cx="78.3" cy="112.3" r="2"/>
</g>
<g>
	<circle class="st0" cx="59.3" cy="112.3" r="2"/>
</g>
<g>
	<circle class="st0" cx="40.4" cy="112.3" r="2"/>
</g>
<g>
	<circle class="st0" cx="192" cy="112.3" r="2"/>
</g>
<g>
	<circle class="st0" cx="2.5" cy="125.9" r="2"/>
</g>
<g>
	<circle class="st0" cx="21.5" cy="125.9" r="2"/>
</g>
<g>
	<circle class="st0" cx="173" cy="125.9" r="2"/>
</g>
<g>
	<circle class="st0" cx="154.1" cy="125.9" r="2"/>
</g>
<g>
	<circle class="st0" cx="135.2" cy="125.9" r="2"/>
</g>
<g>
	<circle class="st0" cx="116.2" cy="125.9" r="2"/>
</g>
<g>
	<circle class="st0" cx="97.2" cy="125.9" r="2"/>
</g>
<g>
	<circle class="st0" cx="78.3" cy="125.9" r="2"/>
</g>
<g>
	<circle class="st0" cx="59.3" cy="125.9" r="2"/>
</g>
<g>
	<circle class="st0" cx="40.4" cy="125.9" r="2"/>
</g>
<g>
	<circle class="st0" cx="192" cy="125.9" r="2"/>
</g>
<g>
	<circle class="st0" cx="2.5" cy="139.6" r="2"/>
</g>
<g>
	<circle class="st0" cx="21.5" cy="139.6" r="2"/>
</g>
<g>
	<circle class="st0" cx="173" cy="139.6" r="2"/>
</g>
<g>
	<circle class="st0" cx="154.1" cy="139.6" r="2"/>
</g>
<g>
	<circle class="st0" cx="135.2" cy="139.6" r="2"/>
</g>
<g>
	<circle class="st0" cx="116.2" cy="139.6" r="2"/>
</g>
<g>
	<circle class="st0" cx="97.2" cy="139.6" r="2"/>
</g>
<g>
	<circle class="st0" cx="78.3" cy="139.6" r="2"/>
</g>
<g>
	<circle class="st0" cx="59.3" cy="139.6" r="2"/>
</g>
<g>
	<circle class="st0" cx="40.4" cy="139.6" r="2"/>
</g>
<g>
	<circle class="st0" cx="192" cy="139.6" r="2"/>
</g>
<g>
	<circle class="st0" cx="2.5" cy="153.2" r="2"/>
</g>
<g>
	<circle class="st0" cx="21.5" cy="153.2" r="2"/>
</g>
<g>
	<circle class="st0" cx="173" cy="153.2" r="2"/>
</g>
<g>
	<circle class="st0" cx="154.1" cy="153.2" r="2"/>
</g>
<g>
	<circle class="st0" cx="135.2" cy="153.2" r="2"/>
</g>
<g>
	<circle class="st0" cx="116.2" cy="153.2" r="2"/>
</g>
<g>
	<circle class="st0" cx="97.2" cy="153.2" r="2"/>
</g>
<g>
	<circle class="st0" cx="78.3" cy="153.2" r="2"/>
</g>
<g>
	<circle class="st0" cx="59.3" cy="153.2" r="2"/>
</g>
<g>
	<circle class="st0" cx="40.4" cy="153.2" r="2"/>
</g>
<g>
	<circle class="st0" cx="192" cy="153.2" r="2"/>
</g>
<g>
	<circle class="st0" cx="2.5" cy="166.9" r="2"/>
</g>
<g>
	<circle class="st0" cx="21.5" cy="166.9" r="2"/>
</g>
<g>
	<circle class="st0" cx="173" cy="166.9" r="2"/>
</g>
<g>
	<circle class="st0" cx="154.1" cy="166.9" r="2"/>
</g>
<g>
	<circle class="st0" cx="135.2" cy="166.9" r="2"/>
</g>
<g>
	<circle class="st0" cx="116.2" cy="166.9" r="2"/>
</g>
<g>
	<circle class="st0" cx="97.2" cy="166.9" r="2"/>
</g>
<g>
	<circle class="st0" cx="78.3" cy="166.9" r="2"/>
</g>
<g>
	<circle class="st0" cx="59.3" cy="166.9" r="2"/>
</g>
<g>
	<circle class="st0" cx="40.4" cy="166.9" r="2"/>
</g>
<g>
	<circle class="st0" cx="192" cy="166.9" r="2"/>
</g>
<g>
	<circle class="st0" cx="2.5" cy="180.5" r="2"/>
</g>
<g>
	<circle class="st0" cx="21.5" cy="180.5" r="2"/>
</g>
<g>
	<circle class="st0" cx="173" cy="180.5" r="2"/>
</g>
<g>
	<circle class="st0" cx="154.1" cy="180.5" r="2"/>
</g>
<g>
	<circle class="st0" cx="135.2" cy="180.5" r="2"/>
</g>
<g>
	<circle class="st0" cx="116.2" cy="180.5" r="2"/>
</g>
<g>
	<circle class="st0" cx="97.2" cy="180.5" r="2"/>
</g>
<g>
	<circle class="st0" cx="78.3" cy="180.5" r="2"/>
</g>
<g>
	<circle class="st0" cx="59.3" cy="180.5" r="2"/>
</g>
<g>
	<circle class="st0" cx="40.4" cy="180.5" r="2"/>
</g>
<g>
	<circle class="st0" cx="192" cy="180.5" r="2"/>
</g>
<g>
	<circle class="st0" cx="2.5" cy="194.2" r="2"/>
</g>
<g>
	<circle class="st0" cx="21.5" cy="194.2" r="2"/>
</g>
<g>
	<circle class="st0" cx="173" cy="194.2" r="2"/>
</g>
<g>
	<circle class="st0" cx="154.1" cy="194.2" r="2"/>
</g>
<g>
	<circle class="st0" cx="135.2" cy="194.2" r="2"/>
</g>
<g>
	<circle class="st0" cx="116.2" cy="194.2" r="2"/>
</g>
<g>
	<circle class="st0" cx="97.2" cy="194.2" r="2"/>
</g>
<g>
	<circle class="st0" cx="78.3" cy="194.2" r="2"/>
</g>
<g>
	<circle class="st0" cx="59.3" cy="194.2" r="2"/>
</g>
<g>
	<circle class="st0" cx="40.4" cy="194.2" r="2"/>
</g>
<g>
	<circle class="st0" cx="192" cy="194.2" r="2"/>
</g>
<g>
	<circle class="st0" cx="2.5" cy="207.8" r="2"/>
</g>
<g>
	<circle class="st0" cx="21.5" cy="207.8" r="2"/>
</g>
<g>
	<circle class="st0" cx="173" cy="207.8" r="2"/>
</g>
<g>
	<circle class="st0" cx="154.1" cy="207.8" r="2"/>
</g>
<g>
	<circle class="st0" cx="135.2" cy="207.8" r="2"/>
</g>
<g>
	<circle class="st0" cx="116.2" cy="207.8" r="2"/>
</g>
<g>
	<circle class="st0" cx="97.2" cy="207.8" r="2"/>
</g>
<g>
	<circle class="st0" cx="78.3" cy="207.8" r="2"/>
</g>
<g>
	<circle class="st0" cx="59.3" cy="207.8" r="2"/>
</g>
<g>
	<circle class="st0" cx="40.4" cy="207.8" r="2"/>
</g>
<g>
	<circle class="st0" cx="192" cy="207.8" r="2"/>
</g>
<g>
	<circle class="st0" cx="2.5" cy="221.5" r="2"/>
</g>
<g>
	<circle class="st0" cx="21.5" cy="221.5" r="2"/>
</g>
<g>
	<circle class="st0" cx="173" cy="221.5" r="2"/>
</g>
<g>
	<circle class="st0" cx="154.1" cy="221.5" r="2"/>
</g>
<g>
	<circle class="st0" cx="135.2" cy="221.5" r="2"/>
</g>
<g>
	<circle class="st0" cx="116.2" cy="221.5" r="2"/>
</g>
<g>
	<circle class="st0" cx="97.2" cy="221.5" r="2"/>
</g>
<g>
	<circle class="st0" cx="78.3" cy="221.5" r="2"/>
</g>
<g>
	<circle class="st0" cx="59.3" cy="221.5" r="2"/>
</g>
<g>
	<circle class="st0" cx="40.4" cy="221.5" r="2"/>
</g>
<g>
	<circle class="st0" cx="192" cy="221.5" r="2"/>
</g>
<g>
	<circle class="st0" cx="2.5" cy="235.1" r="2"/>
</g>
<g>
	<circle class="st0" cx="21.5" cy="235.1" r="2"/>
</g>
<g>
	<circle class="st0" cx="173" cy="235.1" r="2"/>
</g>
<g>
	<circle class="st0" cx="154.1" cy="235.1" r="2"/>
</g>
<g>
	<circle class="st0" cx="135.2" cy="235.1" r="2"/>
</g>
<g>
	<circle class="st0" cx="116.2" cy="235.1" r="2"/>
</g>
<g>
	<circle class="st0" cx="97.2" cy="235.1" r="2"/>
</g>
<g>
	<circle class="st0" cx="78.3" cy="235.1" r="2"/>
</g>
<g>
	<circle class="st0" cx="59.3" cy="235.1" r="2"/>
</g>
<g>
	<circle class="st0" cx="40.4" cy="235.1" r="2"/>
</g>
<g>
	<circle class="st0" cx="192" cy="235.1" r="2"/>
</g>
<g>
	<circle class="st0" cx="2.5" cy="248.8" r="2"/>
</g>
<g>
	<circle class="st0" cx="21.5" cy="248.8" r="2"/>
</g>
<g>
	<circle class="st0" cx="173" cy="248.8" r="2"/>
</g>
<g>
	<circle class="st0" cx="154.1" cy="248.8" r="2"/>
</g>
<g>
	<circle class="st0" cx="135.2" cy="248.8" r="2"/>
</g>
<g>
	<circle class="st0" cx="116.2" cy="248.8" r="2"/>
</g>
<g>
	<circle class="st0" cx="97.2" cy="248.8" r="2"/>
</g>
<g>
	<circle class="st0" cx="78.3" cy="248.8" r="2"/>
</g>
<g>
	<circle class="st0" cx="59.3" cy="248.8" r="2"/>
</g>
<g>
	<circle class="st0" cx="40.4" cy="248.8" r="2"/>
</g>
<g>
	<circle class="st0" cx="192" cy="248.8" r="2"/>
</g>
</svg>
