<svg id="Layer_1" data-name="Layer 1" xmlns="http://www.w3.org/2000/svg" viewBox="0 0 24 21.63"><path d="M23.66,13.07A2,2,0,0,1,24,14.2V17a2,2,0,0,1-.34,1.18,2.43,2.43,0,0,1-.84.79v1.46a2.42,2.42,0,0,1-2.43,2.43H10.82V20.39h9.57v-8.5a8.26,8.26,0,0,0-.64-3.27,8.63,8.63,0,0,0-1.81-2.68A8.42,8.42,0,0,0,4.25,8.62a8.26,8.26,0,0,0-.64,3.27v7.32H2.37a2.28,2.28,0,0,1-1.67-.7A2.33,2.33,0,0,1,0,16.79V14.42a2.51,2.51,0,0,1,.31-1.24,2.07,2.07,0,0,1,.87-.84,11.49,11.49,0,0,1,.88-4.59A10.29,10.29,0,0,1,4.48,4.23,11.3,11.3,0,0,1,7.94,2,10.68,10.68,0,0,1,12,1.18,10.82,10.82,0,0,1,16.08,2a10.67,10.67,0,0,1,3.47,2.28,11,11,0,0,1,2.39,3.52,11.2,11.2,0,0,1,.88,4.51A2.43,2.43,0,0,1,23.66,13.07Zm-8-2.93a9.71,9.71,0,0,1-5-4.68,9.09,9.09,0,0,1-2,4.29,10.17,10.17,0,0,1-3.83,2.81A7,7,0,0,1,6.93,6.87,7.64,7.64,0,0,1,9.35,5.32a7.42,7.42,0,0,1,2.71-.53,7,7,0,0,1,3.32.79,7.27,7.27,0,0,1,2.54,2.17,7.15,7.15,0,0,1,1.29,3.07A9.27,9.27,0,0,1,15.69,10.14ZM7.55,14.06a1.1,1.1,0,0,0,.84.36,1.13,1.13,0,0,0,.85-.36,1.29,1.29,0,0,0,.34-.88A1.16,1.16,0,0,0,8.39,12a1.12,1.12,0,0,0-.84.34,1.11,1.11,0,0,0-.34.84A1.25,1.25,0,0,0,7.55,14.06Zm7.21,0a1.13,1.13,0,0,0,.85.36,1.1,1.1,0,0,0,.84-.36,1.25,1.25,0,0,0,.34-.88,1.11,1.11,0,0,0-.34-.84,1.12,1.12,0,0,0-.84-.34,1.16,1.16,0,0,0-1.19,1.18A1.29,1.29,0,0,0,14.76,14.06Z" transform="translate(0 -1.18)"/></svg>