<svg id="Layer_1" data-name="Layer 1" xmlns="http://www.w3.org/2000/svg" viewBox="0 0 220.75 409.18"><path d="M61.6,231H52.09c-13.66,0-27.33.1-41-.05C2.94,230.82.22,228.44.15,220.64q-.3-31.48,0-63c.08-7.77,2.95-10.17,11-10.21,14.83-.07,29.66,0,44.49,0H61.6c0-2.45,0-4.4,0-6.35.35-19-.34-38,1.27-56.92C66.92,36.63,103.43,2.24,151.16.44c20-.76,40-.32,60-.26,6.63,0,9.48,2.86,9.51,9.5q.17,29.75,0,59.49c0,6.75-2.8,9.44-10,9.62-13.49.33-27,.33-40.49.54-15.67.23-21.85,6.14-22.13,21.82-.26,14.8-.05,29.61-.05,44.95,2.08.1,3.83.26,5.59.26,17.16,0,34.33,0,51.49,0,11.19,0,13.64,2.42,13.65,13.39q0,29.49,0,59c0,9.21-2.3,11.54-11.53,11.58-17.66.07-35.33,0-53,0H148V237q0,78.24,0,156.48c0,14-1.64,15.65-15.86,15.65q-28.74,0-57.49,0c-10.59,0-13-2.41-13-12.87q0-79.25,0-158.48Z"/></svg>