<svg id="Layer_1" data-name="Layer 1" xmlns="http://www.w3.org/2000/svg" viewBox="0 0 512 512"><path d="M511,292.69c-1.21-18.49-3.67-36.77-9.08-54.56-11.35-37.32-34.92-62.2-73.42-71.63-20.58-5-41.52-6.58-62.49-3.47-34.18,5.08-61.71,21.09-80.14,51.11-.55.9-1.31,1.66-3,3.75v-47.5H181.05v6.68Q181,344.55,181,512H287c0-56-.19-111.95.24-167.93A224,224,0,0,1,291,302.92c7.21-36.68,32.29-50.59,67.18-47.35,25.64,2.37,40.35,17.57,44.65,44.73a222.44,222.44,0,0,1,2.93,33.28c.31,59.47.2,119,.23,178.42H512V301C511.67,298.23,511.23,295.47,511,292.69Z" transform="translate(0)"/><path d="M114.67,177.07v-6.66H8.4v7.18q0,163.73,0,327.46c0,2.32-.26,4.63-.39,6.95H115c-.11-2.32-.31-4.64-.31-7Q114.66,341.06,114.67,177.07Z" transform="translate(0)"/><path d="M82.84,4C78.35,2.29,73.62,1.3,69,0H54C43.75,2.34,33.83,5.42,25.25,11.89A61.67,61.67,0,0,0,1,50.69C.74,51.81.32,52.9,0,54V69c.37,1.44.81,2.86,1.09,4.31,5.65,29,31.73,50.56,60.74,50.24,29.26-.32,54.9-21.86,60.06-50.43C127.28,43.25,111,14.38,82.84,4Z" transform="translate(0)"/></svg>