<?xml version="1.0" encoding="utf-8"?>
<!-- Generator: Adobe Illustrator 26.0.3, SVG Export Plug-In . SVG Version: 6.00 Build 0)  -->
<svg version="1.1" id="Layer_1" xmlns="http://www.w3.org/2000/svg" xmlns:xlink="http://www.w3.org/1999/xlink" x="0px" y="0px"
	 viewBox="0 0 83.9 89.9" style="enable-background:new 0 0 83.9 89.9;" xml:space="preserve">
<style type="text/css">
	.st0{fill-rule:evenodd;clip-rule:evenodd;fill:#FF0988;}
</style>
<path class="st0" d="M83,70.8c-0.4,1.6-0.9,3.1-1.7,4.5c-0.7,1.1-1.5,2.1-2.6,2.9c-1.5,1-3.2,1.8-5,2.2c-2.1,0.5-4.3,0.8-6.5,0.8
	c-5.4,0-10.7-1.6-15.3-4.6c3.7-1.2,7.2-2.9,10.4-4.9c3.1-2.1,5.8-4.5,8.2-7.3c3.1-3.5,5.5-7.5,7.2-11.9c1.6-4.3,2.5-8.8,2.5-13.4
	c0-7.1-2-14-5.9-20c-4.5-7-11-12.5-18.6-15.9C50.9,1.1,45.8,0,40.6,0c-4.5,0-8.9,0.8-13.2,2.3C23.1,3.9,19,6.1,15.4,9
	c-4.8,3.6-8.7,8.3-11.5,13.6c-2.6,5.3-4,11.1-3.9,17c0,6.6,1.7,13.1,4.9,18.9c3.3,5.8,8.1,10.6,13.9,14c3,1.8,6.3,3.2,9.7,4.2
	c3.2,1,6.6,1.5,10,1.5l0.3,0.4c3.3,4.1,6.4,7,9.3,8.6c3.7,1.8,7.8,2.7,12,2.6c8.2,0,14.4-2.3,18.8-6.8c1.5-1.5,2.7-3.4,3.6-5.4
	c0.8-2.2,1.3-4.5,1.3-6.8L83,70.8z"/>
</svg>
