<svg xmlns="http://www.w3.org/2000/svg" width="107.5" height="100.82" viewBox="0 0 107.5 100.82">
  <defs>
    <style>
      .cls-1 {
        fill: #ff8f3c;
        fill-rule: evenodd;
      }
    </style>
  </defs>
  <path class="cls-1" d="M332.638,2397.51l-4.43-15.51a14.977,14.977,0,0,0-13.781-10.4H243.573a14.977,14.977,0,0,0-13.781,10.4l-4.431,15.51a3.134,3.134,0,0,0-.121.86v10.13a13.3,13.3,0,0,0,8.435,12.36v39.95a11.6,11.6,0,0,0,11.585,11.59h67.48a11.6,11.6,0,0,0,11.586-11.59v-39.95a13.3,13.3,0,0,0,8.434-12.36v-10.13a3.1,3.1,0,0,0-.122-0.86h0Zm-96.788-13.78a8.748,8.748,0,0,1,7.723-5.83h70.854a8.749,8.749,0,0,1,7.723,5.83l3.284,11.49H232.566Zm15.934,17.8h13.944v6.97a6.972,6.972,0,0,1-13.944,0v-6.97Zm20.244,0h13.944v6.97a6.972,6.972,0,0,1-13.944,0v-6.97Zm20.244,0h13.944v6.97a6.972,6.972,0,0,1-13.944,0v-6.97Zm-60.732,6.97v-6.97h13.943v6.97a6.972,6.972,0,0,1-13.943,0h0Zm25.305,57.6v-19.01h10.571v19.01H256.845Zm55.895,0H273.715v-22.16a3.158,3.158,0,0,0-3.15-3.16H253.7a3.159,3.159,0,0,0-3.15,3.16v22.16H245.26a5.292,5.292,0,0,1-5.285-5.29v-39.12a13.22,13.22,0,0,0,8.659-4.62,13.249,13.249,0,0,0,20.244,0,13.249,13.249,0,0,0,20.244,0,13.249,13.249,0,0,0,20.244,0,13.22,13.22,0,0,0,8.659,4.62v39.12a5.292,5.292,0,0,1-5.285,5.29h0Zm6.748-50.63a6.981,6.981,0,0,1-6.972-6.97v-6.97H326.46v6.97a6.981,6.981,0,0,1-6.972,6.97h0Zm0,0" transform="translate(-225.25 -2371.59)"/>
</svg>
