<svg xmlns="http://www.w3.org/2000/svg" width="102.407" height="102.406" viewBox="0 0 102.407 102.406">
  <defs>
    <style>
      .cls-1 {
        fill: #28a9e2;
        fill-rule: evenodd;
      }
    </style>
  </defs>
  <path class="cls-1" d="M91.407,62.929H51.914l15.84,10.606a3,3,0,0,1-.521,5.264l-4.651,1.927,5,12.073a3,3,0,0,1-1.624,3.919l-14.844,6.148a3,3,0,0,1-3.92-1.625l-5-12.071L37.545,91.1a3,3,0,0,1-4.091-3.354l4.909-24.814H11.073A11.046,11.046,0,0,1,.04,51.9V11.729A11.046,11.046,0,0,1,11.073.7H91.406A11.047,11.047,0,0,1,102.44,11.729V51.9A11.046,11.046,0,0,1,91.407,62.929ZM42.67,82.48a3,3,0,0,1,3.92,1.623l5,12.072,9.3-3.852-5-12.072a3,3,0,0,1,1.623-3.919l2.244-.93L44.087,64.909l-3.659,18.5ZM96.44,11.729A5.039,5.039,0,0,0,91.406,6.7H11.073A5.039,5.039,0,0,0,6.04,11.729V51.9a5.039,5.039,0,0,0,5.033,5.034H41.71a2.957,2.957,0,0,1,.622,0H91.407A5.039,5.039,0,0,0,96.44,51.9V11.729ZM64.873,54.872a9.428,9.428,0,1,1,6.666-2.762A9.361,9.361,0,0,1,64.873,54.872ZM67.3,43.022a3.425,3.425,0,1,0,1,2.423A3.405,3.405,0,0,0,67.3,43.022ZM46.545,49.84A9.369,9.369,0,0,1,39.88,52.6h0a9.427,9.427,0,0,1-6.666-16.093L55.935,13.786A9.427,9.427,0,0,1,69.267,27.117Zm18.48-31.811a3.427,3.427,0,0,0-4.846,0L37.456,40.75A3.427,3.427,0,0,0,42.3,45.6L65.024,22.874A3.428,3.428,0,0,0,65.024,18.029ZM37.607,27.606a9.426,9.426,0,1,1,6.666-2.761A9.363,9.363,0,0,1,37.607,27.606ZM40.03,15.757a3.426,3.426,0,1,0,0,4.846A3.4,3.4,0,0,0,40.03,15.757Z" transform="translate(-0.031 -0.688)"/>
</svg>
