<svg xmlns="http://www.w3.org/2000/svg" width="102.35" height="97.56" viewBox="0 0 102.35 97.56">
  <defs>
    <style>
      .cls-1 {
        fill: #e7068a;
        fill-rule: evenodd;
      }
    </style>
  </defs>
  <path class="cls-1" d="M1131.53,2423.38l-9.28,11.51,0.74,14.76a3.006,3.006,0,0,1-2.21,3.05l-14.28,3.86-8.09,12.37a2.983,2.983,0,0,1-2.51,1.36,3.058,3.058,0,0,1-1.07-.19l-13.82-5.27-13.82,5.27a3,3,0,0,1-3.58-1.16l-8.08-12.38-14.28-3.86a3.006,3.006,0,0,1-2.21-3.05l0.74-14.76-9.28-11.51a2.981,2.981,0,0,1,0-3.76l9.28-11.51-0.74-14.77a3,3,0,0,1,2.21-3.04l14.28-3.86,8.08-12.38a3,3,0,0,1,3.58-1.16l13.82,5.26,13.82-5.26a3,3,0,0,1,3.58,1.16l8.09,12.38,14.28,3.86a3,3,0,0,1,2.21,3.04l-0.74,14.77,9.28,11.51A3.008,3.008,0,0,1,1131.53,2423.38Zm-14.67-12.4a3.043,3.043,0,0,1-.66-2.03l0.68-13.49-13.05-3.53a2.98,2.98,0,0,1-1.73-1.26l-7.39-11.31-12.63,4.81a3.033,3.033,0,0,1-2.14,0l-12.63-4.81-7.39,11.31a2.958,2.958,0,0,1-1.72,1.26l-13.05,3.53,0.67,13.49a2.992,2.992,0,0,1-.66,2.03l-8.48,10.52,8.48,10.52a2.975,2.975,0,0,1,.66,2.03l-0.67,13.49,13.05,3.53a2.985,2.985,0,0,1,1.72,1.25l7.39,11.32,12.63-4.81a3.033,3.033,0,0,1,2.14,0l12.63,4.81,7.39-11.32a3.007,3.007,0,0,1,1.73-1.25l13.05-3.53-0.68-13.49a3.026,3.026,0,0,1,.66-2.03l8.48-10.52Zm-32.72,32.24h-0.13v6.37a3,3,0,0,1-6,0v-6.37h-6.37a3,3,0,1,1,0-5.99h12.5a6.365,6.365,0,1,0,0-12.73h-6.25a12.365,12.365,0,1,1,0-24.73h0.12v-6.36a3,3,0,0,1,6,0v6.36h6.37a3,3,0,0,1,0,6h-12.49a6.365,6.365,0,1,0,0,12.73h6.25A12.36,12.36,0,1,1,1084.14,2443.22Z" transform="translate(-1029.84 -2372.72)"/>
</svg>
