<svg id="Layer_1" data-name="Layer 1" xmlns="http://www.w3.org/2000/svg" viewBox="0 0 510.96 415.9"><path d="M0,369c57.27,5.14,107.87-8.64,153.87-43.13-47.9-4.32-79.81-28.46-97.77-73.19,15.93,1.82,30.72,2.17,46.78-2.11-25.25-6.2-45.09-18.46-60.36-37.69s-22.75-41.08-22.78-65.81c7.62,2.89,14.73,6.18,22.18,8.25s15.24,2.93,23,3.88C19.36,120.29,8.7,74.16,34.26,18.75c57.27,67.41,128.92,104.3,216,110.16-.38-10.43-1.29-20.36-1-30.24,1.27-43.16,34.29-84.15,76.16-94.78q58.16-14.76,102,26.4c2.17,2,4,2.85,7,1.89,10.47-3.3,21.25-5.71,31.49-9.56s20-9,30.51-13.9A80.23,80.23,0,0,1,479.73,40c-7.81,8.93-16.8,16.82-25.09,25,18.66-2.07,37.15-7.86,56.32-15.57-13.41,19.71-28.34,36.19-46.45,49.57-4.59,3.39-5.78,6.94-5.67,12.47,1,48.17-9.66,93.87-30.55,137.14-25.07,52-61.48,94-110.74,124.5-35.06,21.7-73.24,34.62-114.09,40a311.39,311.39,0,0,1-106.85-4A292.85,292.85,0,0,1,2.28,370.76C1.87,370.5,1.5,370.17,0,369Z"/></svg>